# xmcd
#
# Track frame offsets:
#	150
#	12886
#	26341
#	46089
#	63384
#	77502
#	93115
#	110239
#	118816
#	132854
#	146065
#	159767
#	173107
#	187515
#
# Disc length: 2662 seconds
#
# Revision: 1
# Processed by: cddbd v1.5.2PL0 Copyright (c) Steve Scherf et al.
# Submitted via: audiograbber 1.83.01
#
DISCID=a40a640e
DTITLE=Mary Schneider - The Great Mary Schneider [Disc 3]
DYEAR=2005
DGENRE=Country
TTITLE0=Jolene
TTITLE1=Wimoweh
TTITLE2=The Blue Danube
TTITLE3=Range In The Western Sky
TTITLE4=Medley: Ghost Riders In The Sky/Rawhide/Mule Train
TTITLE5=Brahm's Lullaby Yodel (with daughter Melinda Schneider)
TTITLE6=Hooked On Yodelling
TTITLE7=I Bin A Resch's Dirndl Vom Land
TTITLE8=Yodel And Smile
TTITLE9=I Love You Australia (with daughter Melinda Schneider)
TTITLE10=Largo Al Yodel (Largo Al Factotum)
TTITLE11=Hungarian Dance Yodel
TTITLE12=Starlight Serenade
TTITLE13=Tritsch Tratsch Polka
EXTD=YEAR: 2005
EXTT0=
EXTT1=
EXTT2=
EXTT3=
EXTT4=
EXTT5=
EXTT6=
EXTT7=
EXTT8=
EXTT9=
EXTT10=
EXTT11=
EXTT12=
EXTT13=
PLAYORDER=
